{"title":"American Pie (THiZZoRDiEuBZs)","uid":8534490,"size":1511581308,"categoryP":"video","categoryS":"movies_dvdr","magnet":"?xt=urn:btih:748ae6eaaa61b8342df9042685bf745077ca0c08&amp;dn=American+Pie+%28THiZZoRDiEuBZs%29&amp;tr=udp%3A%2F%2Ftracker.openbittorrent.com%3A80&amp;tr=udp%3A%2F%2Fopen.demonii.com%3A1337&amp;tr=udp%3A%2F%2Ftracker.coppersurfer.tk%3A6969&amp;tr=udp%3A%2F%2Fexodus.desync.com%3A6969","seeders":1,"leechers":0,"uploader":null,"files":1,"time":1370230208,"description":"Format : MPEG-4\nFormat profile : Base Media\nCodec ID : isom\nFile size : 1.41 GiB\nDuration : 1h 35mn\nOverall bit rate : 2 117 Kbps\nMovie name : AMERICANPIEULTIMATEUNRATED_D2_1\nGenre : Comedy\nWriting application : Lavf52.13.0\n\nVideo\nID : 1\nFormat : MPEG-4 Visual\nFormat profile : Simple@L1\nFormat settings, BVOP : No\nFormat settings, QPel : No\nFormat settings, GMC : No warppoints\nFormat settings, Matrix : Default (H.263)\nCodec ID : 20\nDuration : 1h 35mn\nBit rate mode : Variable\nBit rate : 1 984 Kbps\nWidth : 640 pixels\nHeight : 480 pixels\nDisplay aspect ratio : 4:3\nFrame rate mode : Constant\nFrame rate : 23.976 fps\nColor space : YUV\nChroma subsampling : 4:2:0\nBit depth : 8 bits\nScan type : Progressive\nBits/(Pixel*Frame) : 0.269\nStream size : 1.32 GiB (94%)\nWriting library : Lavc51.55.0\n\nAudio\nID : 2\nFormat : AAC\nFormat/Info : Advanced Audio Codec\nFormat version : Version 4\nFormat profile : LC\nFormat settings, SBR : No\nCodec ID : 40\nDuration : 1h 35mn\nBit rate mode : Variable\nBit rate : 128 Kbps\nChannel(s) : 2 channels\nChannel positions : Front: L R\nSampling rate : 48.0 KHz\nStream size : 87.1 MiB (6%)","torrent":{"xt":"urn:btih:748ae6eaaa61b8342df9042685bf745077ca0c08","amp;dn":"American+Pie+%28THiZZoRDiEuBZs%29","amp;tr":["udp%3A%2F%2Ftracker.openbittorrent.com%3A80","udp%3A%2F%2Fopen.demonii.com%3A1337","udp%3A%2F%2Ftracker.coppersurfer.tk%3A6969","udp%3A%2F%2Fexodus.desync.com%3A6969"],"infoHash":"748ae6eaaa61b8342df9042685bf745077ca0c08","infoHashBuffer":{"type":"Buffer","data":[116,138,230,234,170,97,184,52,45,249,4,38,133,191,116,80,119,202,12,8]},"announce":[],"urlList":[]}}